<svg xmlns="http://www.w3.org/2000/svg" height="296" width="311" version="1.1" viewBox="0 0 311 296"><path d="m155.91,32.812c-6.3027,0.05467-12.609,2.5568-17.25,7.4688-9.214,9.752-8.8419,24.591,0.8125,33.75,4.6587,4.4173,10.55,6.5752,16.438,6.5312,5.888,0.044,11.78-2.1139,16.438-6.5312,9.656-9.1587,9.9959-23.998,0.78125-33.75-4.6427-4.912-10.919-7.4141-17.219-7.4688zm-38.97,50.844c-13.777,0.31679-23.158,0.99142-36.844,9.1562v7.7812c0.08272-0.0622,0.16546-0.13042,0.25-0.1875,11.404-7.7137,23.576-13.4,36.594-16.75zm78.375,0c12.913,3.327,24.987,8.9697,36.312,16.594l0.0312-7.4375c-13.51-8.059-22.86-8.833-36.35-9.156zm-24.7,3.532c-4.8611,2.3083-9.7839,3.4529-14.719,3.4375-4.8755,0.01524-9.7282-1.1227-14.531-3.375l-0.37,0.155s-4.8713,1.9186-10.469,4.2812c-5.5975,2.3626-11.971,5.1884-14.844,6.875-1.8963,1.1139-3.6731,2.5182-5.1562,4.1562,2.0434-0.017,4.0887,0.25342,6.0625,0.875,3.8672,1.2178,7.4206,3.8337,9.8125,8.25,0.16881,0.31161,0.29631,0.67625,0.46875,1.2188,0.17244,0.5425,0.3652,1.2266,0.59375,2.0625,0.45711,1.6717,1.0076,3.9032,1.6562,6.5625,1.2974,5.3187,2.9185,12.349,4.625,19.875,2.3567,10.393,4.6476,20.815,6.6562,29.969,2.2022,3.4385,4.5241,7.0854,6.0312,9.4375,2.9757-1.0302,6.1383-1.625,9.4688-1.625,3.458,0,6.738,0.6181,9.8125,1.7188,1.3634-2.1281,3.4315-5.4165,5.4062-8.5,2.0495-9.3363,4.4572-20.2,6.9062-31,1.7066-7.5257,3.3277-14.556,4.625-19.875,0.64866-2.6593,1.2305-4.8908,1.6875-6.5625,0.2285-0.83584,0.42139-1.52,0.59375-2.0625,0.17236-0.54247,0.30017-0.90727,0.46875-1.2188,2.3916-4.4163,5.914-7.0322,9.7812-8.25,2.105-0.66285,4.3143-0.9021,6.5-0.84375-1.4916-1.6583-3.2732-3.063-5.1875-4.1875-2.8734-1.6867-9.2465-4.5124-14.844-6.875-5.5972-2.3626-10.438-4.2812-10.438-4.2812z" fill-rule="evenodd" fill="#f68712"/><path fill-rule="nonzero" fill="#7b7979" d="m60.558,24.681,8.7099,13.209,1.4411-1.6267c0.30467-0.296,0.612-0.65867,0.92347-1.092l0.92453-1.0907,0.63173-1.096c0.25627-0.34533,0.4896-0.72533,0.70053-1.1373l1.0645-2.3453,0.29747-1.1627,0.14013-1.2533-0.08333-1.3013-0.4188-1.3667-0.6432-1.1227-0.1328-0.20133-0.06773,0.044c-0.2636-0.32533-0.6204-0.67067-1.0693-1.036l-1.138-0.69867-1.1407-0.40933-1.2541-0.14267c-0.38387-0.01867-0.81613,0.008-1.2979,0.084-0.37653,0.04-0.80373,0.12667-1.2771,0.26267l-2.8048,1.172zm-1.2423-2.1773,3.4375-2.2667,0.18027-0.02267,1.1885-0.688,3.3864-1.1693,2.1511-0.256c0.30987,0.05467,0.65267,0.08533,1.0292,0.09467l1.0079,0.20533,1.8984,0.972,0.91347,0.656,2.3157,2.6307,0.06613,0.24667,0.57707,1.1667,0.3516,1.1213,0.1452,2.128-0.30053,2.036-0.63693,1.968-2.8672,4.5973-2.1848,2.6987-0.87867,0.868c-0.24373,0.28933-0.27507,0.63333-0.0948,1.0293l3.8229,5.7973-0.04747,0.22267c-0.05307,0.31067-0.15827,0.63867-0.31773,0.984-0.33333,0.15467-0.70773,0.27333-1.1224,0.352-0.31453-0.21067-0.61293-0.46533-0.89-0.76533l-14.754-22.376,0.04693-0.51467c0.15107-0.31067,0.3464-0.6,0.58693-0.87067l0.9896-0.84533"/><path fill-rule="nonzero" fill="#7b7979" d="m85.039,7.7507c0.33173-0.116,0.70733-0.21067,1.1224-0.276l0.78747,0.51333,0.1708,1.0827c-0.11707,0.252-0.21613,0.54-0.2984,0.86533l-0.26147,0.936-0.08067,0.93733,0.26813,2.024,0.5948,1.7747,2.5407-1.236,0.25267-0.03467c0.2708,0.03333,0.57187,0.09733,0.90093,0.19067l0.46093,0.76133-0.038,0.28933c-0.06973,0.25733-0.18067,0.52267-0.33333,0.79067l-2.2875,1.204c-0.0692,0.31867-0.02453,0.656,0.13547,1.0133l6.8968,14.149c0.1412,0.32133,0.2584,0.684,0.35053,1.088-0.06347,0.26933-0.16293,0.55733-0.29787,0.86267l-0.7636,0.46267-0.28747-0.04c-0.276-0.13467-0.53747-0.30533-0.78907-0.51333-0.2136-0.31333-0.42547-0.68933-0.6396-1.124l-7.1443-14.66-1.7421,0.848c-0.3204,0.14267-0.68227,0.25867-1.0876,0.35067-0.29267-0.08-0.59213-0.204-0.8968-0.37067-0.1188-0.332-0.19787-0.68133-0.2432-1.048,0.1416-0.29333,0.33693-0.568,0.58693-0.82533l1.9584-0.95467,0.2552-0.21467-0.4568-1.1227-0.5208-2.172-0.0053-2.9613,0.48707-1.764,0.40467-0.82667"/><path fill-rule="nonzero" fill="#7b7979" d="m106.97,10.297-1.5917,0.85467-1.2077,0.98533-0.90426,1.14-0.69894,1.2467-0.42026,1.3227-0.2688,1.5293,0.18906,1.636,0.51987,1.8693c0.18333,0.47733,0.46093,0.98267,0.83013,1.5133,0.2428,0.40133,0.57094,0.804,0.9844,1.208,0.29947,0.312,0.68027,0.61467,1.1412,0.90267,0.3672,0.26267,0.78387,0.49733,1.2448,0.70133l1.3489,0.496c0.424,0.08933,0.92546,0.15333,1.5052,0.19333,0.4968,0.0067,1.0505-0.02933,1.6599-0.116l1.8688-0.51733c0.46974-0.20933,0.97347-0.48667,1.5124-0.832l1.2089-0.984,0.90306-1.1413,0.70054-1.2427,0.41986-1.3253c0.10094-0.428,0.16667-0.92933,0.19267-1.5027,0.0203-0.50267-0.0172-1.0573-0.1136-1.6613l-0.5192-1.868c-0.18747-0.49067-0.46413-0.996-0.82973-1.5133-0.2604-0.41067-0.59014-0.81467-0.98534-1.2093-0.29426-0.3-0.67506-0.60133-1.1407-0.90267-0.32547-0.264-0.74014-0.496-1.2448-0.70133l-1.3489-0.49733-1.5052-0.19067-1.6595,0.112zm-1.1308-2.1787,2.8923-0.76667,2.4505-0.030667,1.1468,0.13867,3.0292,1.2267-0.16973-1.048-0.37347-1.1533,0.003-0.256c0.0625-0.32933,0.17614-0.67733,0.3396-1.0427l0.7448-0.32533,0.45894,0.10667c0.30826,0.212,0.59466,0.48533,0.85933,0.824l5.6921,17.589c-0.0287,0.348-0.10773,0.716-0.238,1.096l-0.46346,0.404-0.63907,0.12267c-0.30533-0.156-0.60053-0.372-0.88867-0.64667l-0.54946-1.4347c-0.10614-0.332-0.2572-0.62267-0.45147-0.87067l-1.0885,1.8787-1.4948,1.672-0.92707,0.80933-1.0772,0.60267c-0.36813,0.21867-0.81187,0.41867-1.3333,0.60133l-1.4593,0.472c-0.3708,0.07733-0.80466,0.13333-1.3031,0.168l-1.2516,0.06533-2.3193-0.352-2.0359-0.784-0.91454-0.46667-1.8016-1.3693-1.5156-1.8013c-0.1552-0.34533-0.3636-0.73067-0.6276-1.1547l-0.52506-1.3573-0.3708-1.408-0.13173-2.5027,0.13907-1.1467,0.65613-2.1653,0.9876-1.9307,1.3943-1.7253,2.0041-1.4107,1.1531-0.628"/><path fill-rule="nonzero" fill="#7b7979" d="m124.13,3.0573c0.3652-0.026667,0.748-0.00667,1.1543,0.068,0.238,0.22267,0.44374,0.49067,0.614,0.804l0.19587,1.2773c0.2416-0.10667,0.4916-0.25333,0.75-0.44267l3.7005-1.9547,3.1741-1.1413,1.0373-0.16,0.252,0.042667,1.1413-0.010667,1.0187,0.252,0.884,0.436,0.66933,0.632,1.0107,1.804c0.028,0.36533,0.007,0.74933-0.068,1.1547-0.19733,0.224-0.43867,0.42133-0.724,0.60133-0.32267,0.024-0.65333-0.008-0.99467-0.092-0.216-0.252-0.39866-0.552-0.54533-0.89733-0.136-0.26267-0.31467-0.53733-0.53467-0.81467l-0.736-0.54-1.0747-0.082667-1.356,0.20933-4.886,2.2213-1.7135,1.0787c-0.21933,0.17067-0.3984,0.416-0.53907,0.73733l2.1667,14.121-0.0432,0.25333c-0.1052,0.288-0.25107,0.584-0.43653,0.884l-0.77334,0.28133-0.25106-0.04267c-0.238-0.12533-0.4828-0.30667-0.73707-0.54133l-0.34213-1.172-0.4052-2.6333-0.1156-1.2893-2.0084-13.087c-0.03-0.3727-0.04-0.7793-0.01-1.2193,0.14-0.2267,0.32-0.4734,0.54-0.7374"/><path fill-rule="nonzero" fill="#7b7979" d="m146.13,0.20935c0.36266,0.024,0.74,0.10267,1.1307,0.232,0.20667,0.25467,0.37067,0.54933,0.49467,0.884l0.0107,1.2907c0.256-0.068,0.524-0.18,0.80533-0.33067l3.9427-1.4093,3.3027-0.67867,1.0507-0.009333,0.24267,0.078667,1.1333,0.14933,0.97067,0.39467,0.81333,0.55867,0.572,0.71867,0.74533,1.932c-0.0253,0.36267-0.10133,0.74-0.232,1.132-0.22666,0.19067-0.49466,0.35333-0.80266,0.492-0.324-0.024-0.64667-0.10133-0.97067-0.23333-0.17733-0.28-0.31467-0.60267-0.41333-0.96533-0.0973-0.28133-0.23334-0.57467-0.412-0.884l-0.65067-0.63867-1.0533-0.232-1.372,0.013333-5.152,1.5027-1.8507,0.82533c-0.23867,0.136-0.45333,0.356-0.63733,0.65333l0.136,14.287-0.0773,0.24267c-0.14533,0.27067-0.33066,0.54267-0.556,0.81333l-0.80666,0.16933-0.24267-0.07867c-0.21733-0.16-0.436-0.372-0.65333-0.63867l-0.17334-1.2107-0.0253-2.664,0.0693-1.2907-0.128-13.241c0.009-0.376,0.06-0.77867,0.14934-1.2107,0.172-0.20267,0.38533-0.42133,0.64-0.65333"/><path fill-rule="nonzero" fill="#7b7979" d="m176.85,4.1053-2.3987,0.216-1.096,0.248-1.7747,0.96133-1.5147,1.408-1.1613,1.7867-0.27867,0.776,0.0333,0.332,15.573,2.3,0.0853-1.1293-0.596-2.0467-0.44133-0.88133-1.236-1.5707-1.684-1.3093-0.99067-0.472l-1.25-0.3493c-0.36667-0.108-0.788-0.19867-1.2667-0.26933zm-0.0453-2.4533,2.932,0.596,1.6187,0.64667,2.4213,1.828,1.6907,2.3707,0.92667,2.0133,0.33467,1.6013,0.009,2.6933-0.28933,0.856-0.56267,0.488-0.97067-0.06267-16.689-2.4667,0.0373,1.3933,0.428,1.532,0.304,0.69733c0.112,0.168,0.248,0.35067,0.40934,0.552l0.804,1.1787,0.488,0.56133,0.58,0.49333,1.344,0.852,1.628,0.56667,1.9187,0.284,0.012-0.08c0.28267,0.016,0.58267,0.004,0.90134-0.03067l0.82266-0.04133,0.76534-0.21333,1.396-0.60933,2.3027-1.7813,0.42667-0.672,0.49333-0.58c0.10934-0.188,0.24667-0.38533,0.41334-0.592l0.77866-0.292c0.248,0.064,0.50267,0.18267,0.764,0.35733,0.15067,0.172,0.28267,0.38133,0.39467,0.63067l-0.0133,0.65067-0.95467,1.4907-2.0987,2.056-1.8787,1.1093-1.396,0.60933-2.4227,0.37733-0.90267,0.02933-2.9427-0.516-1.616-0.64667-3.004-2.32-0.39734-0.63067-0.48666-0.56133-1.324-2.6453-0.468-2.352-0.032-0.904,0.216-2.008,0.78933-2.576,0.42667-0.672c0.11333-0.21333,0.25466-0.43867,0.42533-0.67067l0.908-1.172,2.2347-1.8733,2.0133-0.92533,1.5333-0.428,2.5573-0.192"/><path fill-rule="nonzero" fill="#7b7979" d="m206.89,8.8213,12.075,4.812c0.40267,0.22,0.69867,0.56933,0.88534,1.048l-0.18,0.88533-1.6013,1.188c-0.32533,0.16-0.704,0.384-1.14,0.67467l-14.364,9.6573,9.9747,3.9747,0.164,0.24c0.212,0.41733,0.26267,0.872,0.15333,1.3627-0.28533,0.27867-0.66533,0.50267-1.14,0.67733l-12.073-4.8107c-0.40533-0.22133-0.7-0.56933-0.88666-1.0493l0.18-0.884,17.105-11.521-9.9733-3.9733-0.16533-0.24133c-0.21067-0.41733-0.26133-0.87067-0.152-1.364,0.284-0.27733,0.664-0.504,1.1387-0.676"/><path fill-rule="nonzero" fill="#7b7979" d="m229.99,43.435-0.69867-0.40667c-0.0893-0.22267-0.15733-0.48-0.20533-0.772,0.10933-0.48267,0.31067-0.988,0.604-1.5187l0.20267-0.34933-5.4293-1.1027-2.9773-0.98267-1.5467-0.712-1.384-0.99333c-0.324-0.29733-0.63866-0.66667-0.94133-1.1067-0.184-0.356-0.33733-0.78933-0.46267-1.296-0.04-0.41333-0.0227-0.868,0.0507-1.3707,0.18267-0.50133,0.42-1.0173,0.712-1.548l7.984-13.567,0.592-0.216,0.58133-0.03733,0.756,0.62667c0.0787,0.48133,0.0107,0.972-0.20133,1.4707l-7.468,12.841-0.312,0.37867-0.0107,0.18-0.24533,0.41867-0.0107,0.18c-0.0147,0.05333,0.003,0.12667,0.0587,0.22133,0.13067,0.41733,0.372,0.808,0.72267,1.1667l1.6053,0.93333,5.8253,1.7053,3.3987,0.57733,7.6587-13.011,0.66266-0.176,0.54134,0.03467,0.75466,0.628c0.032,0.45333-0.0587,0.92933-0.27066,1.428l-5.64,9.7013-0.67867,1.0067-3.0027,5.1627c-0.32533,0.264-0.73333,0.432-1.2253,0.504"/><path fill-rule="nonzero" fill="#7b7979" d="m247.61,30.169c0.26667,0.24933,0.508,0.548,0.728,0.89733-0.003,0.32533-0.064,0.65733-0.18,0.996l-0.80933,1.0067c0.24,0.10667,0.51733,0.19333,0.83067,0.25467l3.9413,1.412,2.9827,1.5733,0.81733,0.65867,0.13867,0.216,0.77866,0.83333,0.50134,0.92267,0.27333,0.94667-0.016,0.92-0.64933,1.9653c-0.25067,0.26533-0.548,0.508-0.89734,0.728-0.29866,0.0027-0.608-0.04133-0.932-0.12933-0.236-0.224-0.436-0.48933-0.60266-0.79733,0.04-0.32933,0.13733-0.664,0.29333-1.0067,0.104-0.27867,0.184-0.59467,0.24267-0.94533l-0.0987-0.908-0.664-0.848-1.0693-0.86-4.9347-2.1107-1.9533-0.536c-0.272-0.04667-0.576-0.01467-0.908,0.09867l-8.964,11.128-0.21467,0.13867c-0.284,0.11467-0.6,0.20667-0.94667,0.27333l-0.72933-0.38133-0.14-0.21467c-0.0653-0.26-0.0987-0.56267-0.096-0.908l0.63333-1.0453,1.6707-2.0747,0.87467-0.95333,8.3053-10.312c0.24667-0.284,0.54267-0.56533,0.88533-0.84,0.26267-0.04933,0.56534-0.08,0.908-0.09867"/><path fill-rule="nonzero" fill="#7b7979" d="m34.182,183.37,8.1704,16.876,0.36093,0.93746-0.19587,0.74267-0.71613,0.624-0.81773-0.16147c-0.21613-0.12386-0.42547-0.30106-0.6276-0.52813l-7.6615-15.825-0.86093,0.3224-13.202,6.3921,7.4803,15.452,0.39733,1.0093-0.3072,0.7036-0.4532,0.4068-0.2604,0.0333c-0.2552,0.0147-0.51613-0.0145-0.7812-0.0864-0.24693-0.15733-0.4688-0.35893-0.66413-0.60413l-7.66-15.82-6.9017,3.34c-0.32448,0.1276-0.64792,0.224-0.97292,0.28547l-0.74219-0.1948-0.54948-0.75373,0.084373-0.7812,0.60469-0.66254,24.753-11.983c0.26133-0.0333,0.53427-0.0437,0.82027-0.0265l0.7036,0.30787"/><path fill-rule="nonzero" fill="#7b7979" d="m38.071,209.13c0.19267,0.3224,0.3484,0.68907,0.4672,1.0975-0.0964,0.3224-0.25,0.63586-0.46253,0.93693l-1.0911,0.76667c0.20827,0.17506,0.45987,0.34013,0.75253,0.4912l3.5079,2.5249,2.5104,2.4095,0.624,0.88693,0.076,0.2516,0.5344,1.052,0.2344,1.0573,0.002,1.0161-0.2776,0.9104-1.2047,1.7631c-0.32293,0.1932-0.68907,0.34894-1.0979,0.46667-0.29533-0.0812-0.5912-0.2136-0.888-0.3932-0.16933-0.2896-0.2928-0.60947-0.372-0.96413,0.13547-0.31454,0.3276-0.62027,0.5792-0.91347,0.18227-0.248,0.3516-0.5376,0.5104-0.86933l0.16147-0.9292-0.4192-1.0307-0.8152-1.1573-4.2943-3.5-1.7843-1.0896c-0.2584-0.12387-0.56773-0.17707-0.9292-0.16147l-12.065,8.4871-0.25307,0.076c-0.31507,0.036-0.6536,0.0344-1.0172,0.001l-0.6156-0.58546-0.07547-0.25147c0.0088-0.2776,0.0624-0.5896,0.16187-0.92973l0.92667-0.85574,2.2484-1.5828,1.1396-0.69746,11.179-7.8624c0.326-0.2136,0.6984-0.4052,1.1176-0.5828,0.27453,0.0265,0.58333,0.0801,0.92867,0.16133"/><path fill-rule="nonzero" fill="#7b7979" d="m54.331,233.67-1.5203-1.0761c-0.40987-0.22133-0.89893-0.40253-1.4672-0.54627-0.4208-0.15053-0.9104-0.29333-1.4681-0.42666l-1.4735,0.0412c-0.4532-0.005-0.94373,0.0495-1.4751,0.16146-0.44427,0.10254-0.9364,0.27454-1.4792,0.51307-0.45413,0.21187-0.94893,0.5-1.4833,0.8692l-1.4869,1.3391-1.0177,1.4615-0.66453,1.4661c-0.11253,0.42133-0.17707,0.91093-0.19267,1.4708-0.10267,0.4136-0.1276,0.90266-0.074,1.4735,0.0052,0.44267,0.05827,0.93494,0.16147,1.4745,0.10213,0.44266,0.2744,0.93746,0.51307,1.4801,0.21133,0.47347,0.50093,0.96667,0.86813,1.4813l1.3401,1.4896,1.462,1.0156,1.4661,0.664c0.4208,0.11467,0.91147,0.1776,1.4708,0.19227,0.41147,0.10413,0.9016,0.12813,1.4735,0.076,0.45107,0.005,0.94267-0.0495,1.474-0.15987,0.44373-0.10426,0.93587-0.27613,1.4787-0.51613,0.4744-0.2308,0.9676-0.5188,1.4828-0.86827l1.4875-1.3385,1.0183-1.4625,0.60413-1.4068,0.31093-1.4708,0.0744-1.4719-0.16133-1.476-0.5136-1.4771-0.8688-1.4844zm1.4953-2.0464,1.8063,1.9651,0.57867,0.94947c0.1828,0.3068,0.35627,0.6428,0.51973,1.0068l0.46147,0.94786,0.39173,1.948,0.08747,2.8307-0.43387,1.9401-0.7276,1.8787-1.3167,1.8719-1.9635,1.8052-1.8985,1.1573-1.0061,0.40147-1.9491,0.39226-2.8296,0.0875-1.9396-0.4344-1.8781-0.72653-1.8719-1.3177-1.8052-1.9635-1.1584-1.8989-0.40147-1.0053-0.39067-1.9495-0.08853-2.8291,0.43333-1.9385,0.72653-1.8787,1.3177-1.8724,1.0129-0.99067,0.95053-0.81453,0.94947-0.57867c0.30573-0.18387,0.64173-0.35573,1.0079-0.51987l0.94787-0.46146,1.948-0.39053,2.8296-0.088,1.9396,0.43333,2.8157,1.3265,0.93427,0.71613"/><path fill-rule="nonzero" fill="#7b7979" d="m72.878,236.36c0.26307,0.22654,0.5,0.4692,0.70827,0.72547l0.1084,0.6984-0.4088,0.83853-5.5172,7.5281,0.11613-0.0187,6.3891,1.9973,2.5489,1.4547,0.69067,0.60947,1.0484,1.388,0.1744,0.74786,0.0584,0.76827-0.4156,1.5547-3.0375,4.2823-0.60947,0.6896-6.3057,8.6027-0.65827,0.7588c-0.22187,0.0437-0.4776,0.0641-0.76613,0.0584l-0.83813-0.40947-0.22387-0.6812c0.03587-0.28386,0.10987-0.57186,0.22347-0.86666l9.3604-12.77,0.31453-0.28707-0.01827-0.1172,0.24693-0.33586,0.17453-0.8016-0.40787-0.71307-1.6636-1.1161c-0.22813-0.13067-0.4848-0.252-0.76973-0.35627l-4.8527-1.6984-2.3391-0.47347-0.60827,0.6896-8.524,11.628-0.28173,0.1016-0.7484,0.17454-0.838-0.4052-0.2912-0.7292,0.17493-0.80267,16.358-22.313c0.40987-0.23333,0.8864-0.36666,1.4281-0.4"/><path fill-rule="nonzero" fill="#7b7979" d="m91.159,261.04-2.4176-0.5776-1.1548-0.11986-2.0525,0.35893-1.9437,0.88227-1.724,1.3656-0.52653,0.66666-0.07653,0.3344,14.483,7.3692,0.4552-1.0771,0.09-2.1973-0.14267-1.0079-0.69427-1.9427-1.2177-1.836-0.814-0.78693-1.1131-0.75467c-0.32134-0.22653-0.70467-0.45053-1.1511-0.67707zm0.76307-2.4172,2.6719,1.5453,1.3719,1.1651,1.7703,2.5839,0.87507,2.8749,0.2448,2.2761-0.19787,1.676-0.87507,2.6385-0.56507,0.74267-0.70987,0.29333-0.92973-0.37867-15.523-7.8975-0.4192,1.3761-0.086,1.6385,0.06933,0.7828c0.05413,0.1984,0.1276,0.42494,0.21867,0.67187l0.4,1.4197,0.29373,0.71094,0.4052,0.67186,1.0344,1.2751,1.4084,1.0907,1.7833,0.90613,0.03747-0.0744c0.2724,0.10773,0.56973,0.19733,0.8916,0.2692l0.81933,0.22813,0.81973,0.0437,1.5661-0.13854,2.8391-0.98533,0.6376-0.5188,0.67333-0.4052c0.16933-0.14893,0.36827-0.29587,0.59907-0.44373l0.85773-0.0308c0.22187,0.14386,0.43227,0.34533,0.6292,0.6,0.09173,0.2188,0.1516,0.46773,0.1812,0.748l-0.22813,0.63066-1.4239,1.1469-2.7308,1.3224-2.2011,0.4692-1.5661,0.1376-2.4948-0.42814-0.89213-0.26666-2.7109-1.4719-1.3708-1.1641-2.1761-3.2573-0.18067-0.74786-0.2932-0.70934-0.4256-3.0229,0.3152-2.4573,0.26613-0.8916,0.87027-1.8948,1.6188-2.2625,0.638-0.51613c0.18013-0.17507,0.3932-0.34427,0.6364-0.5188l1.2729-0.84947,2.8021-1.0984,2.2755-0.24533,1.6407,0.088,2.5661,0.65213"/><path fill-rule="nonzero" fill="#7b7979" d="m107.09,265.62,0.7964,0.25107c0.14,0.20253,0.26774,0.44533,0.38334,0.72906,0.001,0.50947-0.0849,1.0641-0.2568,1.6667l-0.12454,0.39587,5.7167-0.13854,3.2219,0.3052,1.7204,0.36147,1.6224,0.68027c0.39426,0.22386,0.79533,0.5224,1.2031,0.8984,0.2656,0.31453,0.51934,0.71613,0.76147,1.1973,0.13547,0.4068,0.224,0.86933,0.26507,1.3907-0.0681,0.54533-0.18907,1.1199-0.36187,1.7213l-4.912,15.488-0.54587,0.35572-0.57653,0.1698-0.90573-0.45626c-0.18854-0.46666-0.23387-0.97448-0.136-1.5281l4.5604-14.639,0.22866-0.45307-0.0301-0.1844,0.1484-0.47707-0.0297-0.1828c0.003-0.0573-0.0333-0.12666-0.10934-0.20946-0.22813-0.39054-0.55933-0.72654-0.9948-1.0077l-1.8307-0.57093-6.2543-0.37853-3.5536,0.20413-4.7145,14.853-0.6272,0.32814-0.55094,0.0922-0.9052-0.45729c-0.13653-0.44948-0.1548-0.95104-0.0557-1.5016l3.4448-11.06,0.45147-1.1683,1.8333-5.8891c0.2652-0.33746,0.63853-0.6,1.1177-0.78693"/><path fill-rule="nonzero" fill="#7b7979" d="m141.84,268.02-0.752,15.148,9.988,0.49428c0.35866-0.20366,0.70533-0.49167,1.044-0.86511l1.772-2.0812c0.28-0.3068,0.54933-0.70947,0.812-1.212,0.26666-0.33333,0.50933-0.73747,0.728-1.2147,0.25333-0.34946,0.496-0.75466,0.728-1.2161l0.648-1.3025c0.17466-0.436,0.33866-0.95627,0.49466-1.5599l0.0413-0.8324-0.208-0.84373c-0.16267-0.3572-0.39467-0.7588-0.692-1.2041-0.31867-0.29213-0.69467-0.56146-1.128-0.8068l-1.2147-0.72813-4.7773-1.2385zm-0.87467,17.644-0.36,7.2427,11.569,0.57344,0.936-0.3724,0.77334-0.46093,0.704-0.71355c0.12533-0.31614,0.228-0.67186,0.30266-1.0708l-0.108-1.1745-0.376-0.85314-0.628-0.7828-1.4413-1.2385-0.80667-0.54271zm0.17067-20.265,9.8013,0.9036,4.112,1.2041,2.276,1.1985,1.6653,1.7509,0.612,1.1147c0.10667,0.36666,0.196,0.8172,0.26534,1.3495,0.0373,0.39067,0.044,0.83587,0.0187,1.3359l-0.096,0.24387c-0.0467,0.43066-0.156,0.89573-0.31866,1.4041l-3.036,5.6891-1.5147,1.927-0.87733,0.87552c-0.016,0.31771,0.108,0.60312,0.37466,0.85208l0.96134,0.79896,0.78666,0.95729,0.616,1.0318c0.20534,0.3427,0.38134,0.74166,0.52534,1.1932l0.18,1.4281-0.15067,1.3281-0.652,1.3854-0.8,0.95989-1.0347,0.70157-2.384,0.9651-13.649-0.67604c-0.26533-0.26511-0.528-0.58386-0.78667-0.95729l1.3547-27.302c0.0227-0.47027,0.184-0.90774,0.48133-1.3088l1.2693-0.35467"/><path fill-rule="nonzero" fill="#7b7979" d="m173.28,275.79-1.776,0.56507c-0.424,0.1932-0.864,0.47346-1.32,0.8428-0.376,0.24266-0.784,0.54786-1.2267,0.91186l-0.85334,1.2043c-0.27733,0.35573-0.52933,0.7812-0.76133,1.2733-0.18533,0.41574-0.344,0.91307-0.48,1.4891-0.10533,0.4896-0.17067,1.06-0.2,1.7084l0.172,1.9917,0.55467,1.6932,0.77066,1.4136c0.26667,0.34374,0.62,0.69061,1.0573,1.0427,0.26533,0.32812,0.644,0.64271,1.1307,0.94531,0.35467,0.26251,0.78134,0.51459,1.2733,0.75989,0.416,0.18543,0.91333,0.34428,1.4893,0.47866,0.508,0.1203,1.076,0.18541,1.708,0.2026l1.9933-0.17344,1.6947-0.55312,1.412-0.77084c0.34267-0.26771,0.68933-0.62135,1.0413-1.0573,0.32934-0.26666,0.64534-0.6427,0.94667-1.1292,0.27467-0.35989,0.528-0.78385,0.75867-1.276,0.18533-0.41614,0.344-0.91354,0.48133-1.488,0.10267-0.51979,0.16667-1.088,0.2-1.7094l-0.17333-1.9932-0.55334-1.6921-0.75866-1.3319-0.988-1.1333-1.1293-0.9468-1.2733-0.75986-1.4907-0.47974-1.7053-0.2016zm-0.732-2.4255,2.6533-0.26,1.1067,0.10947c0.356,0.04,0.72667,0.10413,1.1173,0.1932l1.0347,0.20253,1.792,0.86254,2.312,1.6349,1.2867,1.5145,1.06,1.712,0.7,2.1776,0.25733,2.6558-0.21866,2.2135-0.28667,1.0453-0.86133,1.7906-1.6347,2.3104-1.5133,1.2896-1.712,1.0599-2.1787,0.69896-2.656,0.25833-2.2147-0.21875-1.044-0.28646-1.7907-0.85989-2.3107-1.636-1.2867-1.5135-1.06-1.7136-0.70133-2.1771-0.18133-1.4068-0.0773-1.2505,0.10934-1.1068c0.0387-0.35314,0.104-0.7266,0.19333-1.1162l0.20133-1.0343,0.86267-1.7907,1.6347-2.3109,1.516-1.2865,2.7533-1.4479,1.1373-0.31347"/><path fill-rule="nonzero" fill="#7b7979" d="m190.54,261.39,1.1693-0.15307,0.68533,0.5864,2.0813,7.1188,2.4867-0.69746c0.292,0.005,0.596,0.0641,0.916,0.17706l0.62534,0.6896c-0.008,0.27614-0.068,0.58134-0.17467,0.91467-0.192,0.24267-0.45067,0.4572-0.77067,0.64787l-2.4067,0.67506,4.644,16.874c0.0707,0.31197,0.11466,0.67187,0.12933,1.088l-0.484,0.74011-1.168,0.15729-0.684-0.58958-4.9267-17.572-2.9893,0.752c-0.27333-0.0973-0.53867-0.22386-0.8-0.3828l-0.364-0.67706,0.0133-0.26147c0.096-0.27333,0.224-0.53853,0.38-0.80147l1.08-0.47293,2.0053-0.56307-1.7987-6.4197c-0.0733-0.312-0.11733-0.67347-0.13333-1.0881l0.484-0.74267"/><path fill-rule="nonzero" fill="#7b7979" d="m208.81,263.95,3.0547-1.1197,2.5067-0.0708c0.252,0.0599,0.536,0.088,0.85334,0.088,0.21866,0.088,0.464,0.1656,0.73466,0.23227l1.4533,0.64787,0.632,0.636,0.20533,0.90933-0.448,0.64373-0.65867,0.37094-0.26266,0.0224c-0.21867-0.0907-0.448-0.20267-0.688-0.3412l-0.68934-0.3412-1.6173-0.39734-1.7293,0.1948-0.90934,0.2052-0.99733,0.424-1.5547,1.0265-1.0853,1.2787-0.53867,1.4973-0.0133,0.81986,0.424,0.99734,0.63333,0.63493,0.68934,0.34267,0.732,0.2292,1.6747,0.10413,1.8173-0.41347,2.0253-0.77453,0.90933-0.2052,1.7173-0.007,2.3613,0.44267,1.412,0.75573,1.2,1.1204,0.50267,0.96347,0.336,1.8511-0.0133,0.8188-0.12266,0.77867-1.0987,2.0984-1.0853,1.2776-1.524,1.1026-1.8827,0.89322-1.9373,0.5547-1.7627,0.11718-3.052-0.78385-1.3213-0.97611-0.55734-0.6692-0.50133-0.96413c-0.06-0.24787-0.092-0.53333-0.0973-0.864,0.092-0.25053,0.22933-0.49067,0.41733-0.72133l0.58133-0.33747,0.26267-0.0224,0.76533,0.30773,1.0253,1.5563,0.64666,0.44893,0.76267,0.3068,0.77867,0.124,1.6853-0.0839c0.29333-0.0521,0.62133-0.1308,0.984-0.23854l0.95333-0.3172,1.664-0.98173,1.1947-1.2319,0.41867-0.72293,0.23066-0.73333,0.012-0.81974-0.20533-0.90933c-0.14-0.224-0.328-0.448-0.55733-0.66773l-0.67734-0.52707-1.4627-0.46093-1.6867,0.0839-3.92,1.2172-2.584,0.10414-0.732-0.2308-0.776-0.12294-1.456-0.64893-1.276-1.0853-0.512-0.7776-0.55467-1.9385,0.012-0.81986,0.32134-1.5855,0.75733-1.4093,0.45067-0.64534,1.9733-1.7479,0.776-0.5136"/><path fill-rule="nonzero" fill="#7b7979" d="m229.4,253.41,2.7733-1.5375,2.5187-0.68906h2.3573l0.76,0.11453c0.236,0.064,0.49066,0.1016,0.76,0.11453l1.4653,0.45894,0.70667,0.34266,0.68133,0.4584,0.204,0.16974,0.16667,0.58386c-0.052,0.2292-0.13067,0.47187-0.22934,0.73174-0.20266,0.2256-0.456,0.448-0.76,0.6708l-0.75866-0.11454-0.708-0.34266-1.4667-0.45894-1.5173-0.22906h-0.78667l-1.6253,0.22906-2.6507,1.2641-1.4227,1.1839-1.4467,2.0853-0.688,2.1991v0.7864l-0.11467,0.75987,0.11467,0.812c0.005,0.24267,0.0413,0.5136,0.11466,0.8136l0.57467,1.7052,1.1493,1.8359,1.8907,1.7656,2.1893,0.98906,2.28,0.34427,2.4387-0.3452,1.6867-0.75893,1.7227-1.176,1.5627-2.0589,0.61733-1.3692,0.46-2.2532-0.001-0.78533c0.0573-0.25053,0.15867-0.50787,0.30133-0.77707l0.89067-0.4604,0.73467,0.23067,0.45066,0.40573,0.0613,0.25734c0.0507,0.2624,0.064,0.54626,0.044,0.85466l-0.27334,2.2359c-0.0533,0.2292-0.12933,0.47293-0.23066,0.73333l-0.52934,1.512-0.34266,0.7052-0.92,1.3615-1.9507,1.9068-1.8373,1.1489-1.7293,0.6896-1.6547,0.34374-2.356,0.002-2.2547-0.4588-1.4387-0.57454c-0.22133-0.0907-0.45733-0.2052-0.708-0.34266l-0.75066-0.41467-1.96-1.7229-1.204-1.6077-0.91867-1.7839-0.69067-3.3032v-1.5719c0.0547-0.23173,0.092-0.48387,0.116-0.75987l0.22934-0.73493,0.11333-0.75987c0.092-0.21973,0.16933-0.46253,0.232-0.73173l0.688-1.4145,0.91867-1.3589,1.9507-1.9093"/><path fill-rule="nonzero" fill="#7b7979" d="m236.68,238.45c0.28134-0.2052,0.568-0.3812,0.864-0.5276l0.70667,0.0464,0.72533,0.58026,6.136,7.0359,0.008-0.11867,3.3493-5.7948,1.9787-2.1693,0.74534-0.54013,1.5853-0.71814,0.768-0.007,0.76,0.112,1.4253,0.74787,3.5133,3.9,0.54133,0.74533,7.0107,8.0385,0.59333,0.81093c-0.005,0.224-0.0413,0.47707-0.10933,0.75827l-0.584,0.72813-0.71334,0.0693c-0.268-0.0984-0.53333-0.23333-0.796-0.40933l-10.409-11.933-0.21067-0.36774-0.11733-0.007-0.27333-0.31453-0.74534-0.34693-0.784,0.24173-1.4533,1.3771c-0.17867,0.19573-0.35333,0.41973-0.51733,0.67333l-2.7187,4.3625-0.97733,2.1787,0.54133,0.74427,9.4747,10.867,0.0387,0.29747,0.007,0.76667-0.58,0.72906-0.77733,0.124-0.74267-0.34693-18.187-20.849c-0.136-0.452-0.16266-0.9468-0.076-1.4844"/><path fill-rule="nonzero" fill="#7b7979" d="m265.02,225.72-0.904,1.6308-0.49734,1.5301-0.148,1.4937,0.0867,1.4704,0.376,1.3843,0.62,1.4787,1.0787,1.3131,1.4947,1.3323c0.42667,0.312,0.948,0.59586,1.5653,0.85053,0.436,0.2136,0.94533,0.37867,1.5307,0.4984,0.43467,0.10427,0.932,0.15467,1.4947,0.14853,0.46667,0.0224,0.956-0.008,1.472-0.0881l1.448-0.3228c0.41867-0.16,0.88933-0.38547,1.4133-0.67347,0.43734-0.26933,0.896-0.612,1.3773-1.0251l1.332-1.4948c0.29066-0.44427,0.57466-0.96667,0.85066-1.5651l0.5-1.5307,0.14534-1.4948-0.0853-1.4719-0.37466-1.3844c-0.15467-0.4276-0.37734-0.9-0.67467-1.4131-0.26133-0.4468-0.604-0.9068-1.0267-1.3776l-1.4947-1.3317c-0.43734-0.32133-0.95867-0.6052-1.5653-0.84947-0.45466-0.21306-0.96533-0.37866-1.5293-0.5-0.42267-0.0959-0.92267-0.14533-1.496-0.1464-0.42667-0.0469-0.92-0.0177-1.472,0.0864l-1.448,0.3224-1.4133,0.67347-1.3773,1.0256zm-2.1987-1.2615,2.0813-2.2801,2.112-1.3959,1.072-0.52133,3.3147-0.62667-0.73333-0.81347-0.96667-0.79173-0.14-0.22387c-0.13067-0.32133-0.22667-0.688-0.28933-1.0964l0.46533-0.6984,0.456-0.16413c0.38667,0.012,0.78933,0.0907,1.2093,0.236l14.765,12.088c0.16933,0.31973,0.304,0.6812,0.404,1.0855l-0.17467,0.61039-0.48667,0.464c-0.35333,0.0333-0.72933,0.012-1.1333-0.0651l-1.2773-0.93853c-0.28-0.22974-0.572-0.39747-0.87867-0.50414l0.104,2.2385-0.36533,2.2869-0.35067,1.2183-0.59867,1.1255c-0.19866,0.39587-0.472,0.8172-0.82266,1.2667l-1.0027,1.2256c-0.27867,0.2728-0.62267,0.56666-1.0373,0.87186l-1.0493,0.7572-2.2107,0.99067-2.2053,0.45733-1.056,0.10414-2.328-0.1828-2.32-0.7172c-0.328-0.2136-0.724-0.42974-1.1893-0.64947l-1.216-0.88547-1.108-1.0156-1.5093-2.0973-0.52267-1.0751-0.64-2.2453-0.22133-2.2292,0.248-2.2744,0.95066-2.3443,0.65067-1.1907"/><path fill-rule="nonzero" fill="#7b7979" d="m269.5,200.34c0.22-0.2896,0.49066-0.58027,0.812-0.87347l0.97066-0.003,0.76,0.84213c0.0413,0.2828,0.11734,0.58547,0.232,0.9136l0.30267,0.95627,0.45733,0.8572,1.376,1.5975,1.5173,1.1968,1.4947-2.5052,0.20134-0.17027c0.252-0.12453,0.54666-0.23907,0.884-0.34587l0.83066,0.39894,0.12934,0.27186c0.0853,0.26147,0.13733,0.55214,0.15866,0.87094l-1.296,2.3317c0.12134,0.31453,0.35067,0.5828,0.68934,0.8l13.951,8.3297c0.30267,0.1984,0.60934,0.4452,0.916,0.74107,0.0987,0.26933,0.17467,0.57347,0.232,0.91467l-0.39866,0.82906-0.272,0.1308c-0.31334,0.0375-0.64,0.0401-0.972,0.001-0.36267-0.152-0.75867-0.35467-1.1867-0.61093l-14.455-8.6301-1.024,1.7172c-0.19733,0.30254-0.44533,0.60774-0.74133,0.91614-0.3,0.0959-0.628,0.15826-0.98667,0.188-0.28666-0.22134-0.556-0.4792-0.80133-0.7708-0.0427-0.33334-0.0307-0.6828,0.04-1.0428l1.1533-1.9333,0.1-0.328-1.0293-0.712-1.6773-1.5839-1.676-2.5537-0.576-1.8-0.116-0.94213"/><path fill-rule="nonzero" fill="#7b7979" d="m274.67,190.3,0.636-0.99213,0.89067-0.14533,6.7827,3,1.0707-2.3489c0.192-0.2188,0.432-0.4152,0.724-0.58706l0.932-0.0333c0.20667,0.18547,0.40133,0.42654,0.58667,0.7256,0.06,0.30254,0.06,0.63587-0.003,1.0067l-1.036,2.2745,15.889,7.3349c0.284,0.14266,0.592,0.34373,0.91734,0.6l0.252,0.84786-0.63334,0.99174-0.88933,0.14426-16.607-7.5693-1.3547,2.7735c-0.24934,0.1464-0.51867,0.26773-0.80667,0.36346l-0.75333-0.15986-0.192-0.17867c-0.14667-0.25053-0.268-0.51973-0.36534-0.80667l0.33334-1.1319,0.86266-1.8957-6.0653-2.7657c-0.28667-0.14267-0.59067-0.34373-0.91733-0.6l-0.25467-0.84787"/><path fill-rule="evenodd" fill="#36ab9c" d="m44.906,77.218c-6.0445,0.15061-11.556,2.691-15.625,6.6875-4.2553,4.3415-6.8399,10.333-6.6562,16.844,0.36789,12.973,10.701,22.839,23.562,22.5,6.1982-0.16485,11.671-2.7375,15.656-6.7812h0.03125c4.0458-3.9857,6.585-9.4586,6.75-15.656,0.33885-12.861-9.5266-23.226-22.5-23.594-0.40741-0.0115-0.81578-0.01004-1.2188,0zm90.062,5.0312c-19.636,1.6936-37.408,8.5202-53.688,19.531-0.82746,0.55862-1.7382,1.862-1.9062,2.75-1.5366,8.1364-5.148,14.432-9.75,19.625-8.1346,9.1818-25.296,14.198-40.438,17.094-14.418,2.7577-26.326,3.4354-27.5,3.5v11.094c0.74665,0.0206,12.94,0.34468,27.031,1.0312,7.2572,0.3536,14.804,0.78865,21.125,1.3125,6.3209,0.52385,11.373,1.0998,13.875,1.8438,0.35856,0.1065,0.70197,0.30762,1.25,0.59375s1.241,0.65345,2.0625,1.125c1.643,0.9431,3.8259,2.2575,6.375,3.8125,5.0983,3.1101,11.716,7.2531,18.688,11.656,13.631,8.6087,28.268,17.967,35.688,22.719,2.8864-8.2323,9.2433-14.723,17.344-17.875-4.8741-7.6079-14.224-22.214-22.75-35.719-4.3564-6.9002-8.4343-13.44-11.5-18.469-1.5328-2.5142-2.821-4.6613-3.75-6.2812-0.4645-0.80999-0.84296-1.4903-1.125-2.0312-0.28204-0.54091-0.45689-0.89461-0.5625-1.25-1.4313-4.8145-0.77958-9.1542,1.0938-12.75,1.8733-3.5958,4.9242-6.4472,8.3125-8.4375,3.0957-1.8174,9.4458-4.598,15.062-6.9688,4.9775-2.1009,8.3466-3.4401,9.2812-3.8125l-4.2188-4.0938z"/><path fill-rule="evenodd" fill="#80cc28" d="m266.09,77.218c-12.974,0.36763-22.84,10.733-22.5,23.594,0.16485,6.1975,2.7063,11.67,6.75,15.656,3.9858,4.0437,9.49,6.6164,15.688,6.7812,12.862,0.33898,23.196-9.5272,23.562-22.5,0.1861-6.5029-2.41-12.503-6.6562-16.844-0.0104-0.01023-0.0208-0.02104-0.0312-0.03125-4.339-4.2448-10.311-6.8398-16.812-6.6562zm-88.844,5.0312-4.2188,4.0938c0.93456,0.37245,4.3039,1.7116,9.2812,3.8125,5.6164,2.3707,11.967,5.1514,15.062,6.9688,3.3884,1.9903,6.4393,4.8417,8.3125,8.4375s2.5255,7.9355,1.0938,12.75c-0.10699,0.36018-0.30542,0.72947-0.59375,1.2812-0.28833,0.55178-0.64963,1.2348-1.125,2.0625-0.95075,1.6554-2.2766,3.8382-3.8438,6.4062-3.1342,5.1362-7.2902,11.833-11.719,18.844-8.6673,13.722-18.104,28.416-22.781,35.719,8.0072,3.1308,14.301,9.5434,17.219,17.656,7.1449-4.5758,21.866-14.049,35.688-22.781,7.0692-4.4663,13.807-8.6734,19-11.844,2.5967-1.5852,4.8256-2.9127,6.5-3.875,0.83721-0.48113,1.536-0.86457,2.0938-1.1562,0.5577-0.29168,0.9184-0.48606,1.2812-0.59375,0.76438-0.22905,1.5996-0.47261,2.4688-0.75l0.0625-0.0312h0.0625c15.392-2.2128,56.337-3.3357,57.781-3.375v-11.094c-1.1869-0.0638-13.53-0.75974-28-3.5312-7.5883-1.4535-15.588-3.4424-22.469-6.2188-6.8812-2.7763-12.685-6.3107-15.875-10.969-3.8409-5.6079-8.14-11.344-9.6875-19.531-0.1658-0.8856-1.0796-2.1911-1.9062-2.75-16.26-11.02-34.03-17.847-53.67-19.541z"/></svg>